# xmcd CD database file
#
# Track frame offsets:
#	150
#	37407
#	64734
#	82341
#	109212
#	144768
#	171170
#
# Disc length: 2772 seconds
#
# Revision: 1
# Processed by: cddbd v1.5.2PL0 Copyright (c) Steve Scherf et al.
# Submitted via: CDex 1.51
#
DISCID=640ad207
DTITLE=Darius Brubeck Quartet - For Lydia and the Lion
DYEAR=1900
DGENRE=Jazz
TTITLE0=Tsakwe
TTITLE1=Baby I Don't Know
TTITLE2=For Lydia
TTITLE3=The Lion at the Bar
TTITLE4=Blowin' in the Wind
TTITLE5=Monkey's Weding
TTITLE6=I'll Be Seeing You
EXTD=
EXTT0=
EXTT1=
EXTT2=
EXTT3=
EXTT4=
EXTT5=
EXTT6=
PLAYORDER=
